<?xml version="1.0" encoding="UTF-8"?>
<!DOCTYPE svg PUBLIC "-//W3C//DTD SVG 1.1//EN" "http://www.w3.org/Graphics/SVG/1.1/DTD/svg11.dtd">
<!-- Creator: CorelDRAW X8 -->
<svg xmlns="http://www.w3.org/2000/svg" xml:space="preserve" width="19.1028in" height="16.5876in" version="1.1" shape-rendering="geometricPrecision" text-rendering="geometricPrecision" image-rendering="optimizeQuality" fill-rule="evenodd" clip-rule="evenodd"
viewBox="0 0 6195 5380"
 xmlns:xlink="http://www.w3.org/1999/xlink">
 <g id="Layer_x0020_1">
  <metadata id="CorelCorpID_0Corel-Layer"/>
  <path fill="#408BFF" fill-rule="nonzero" d="M4817 273c-41,-247 -422,-359 -414,-197l-1745 10c-120,0 -218,109 -219,243l-3 4587c0,138 99,251 223,252l1780 16c11,23 32,44 64,61 205,5 303,-96 338,-210 12,-31 18,-64 18,-100 -7,-60 -29,-4604 -42,-4662z"/>
  <path fill="#408BFF" fill-rule="nonzero" d="M4484 5246l-2043 -13c-128,-1 -231,-117 -231,-259l8 -4718c0,-137 102,-248 227,-249l2004 -6c126,-1 229,111 230,248l36 4740c1,143 -102,258 -231,257z"/>
  <path fill="black" fill-rule="nonzero" d="M4513 5212c-9,1 -18,2 -26,1l-2043 -15c-110,-1 -200,-103 -199,-227l7 -4712c0,-120 88,-218 195,-218l2004 -9c4,0 7,0 10,0 50,3 97,26 133,65 36,40 56,93 56,150l36 4744c1,113 -73,207 -173,221z"/>
  <polygon fill="#AAE0FF" fill-rule="nonzero" points="4580,271 4614,4998 2313,4985 2318,271 "/>
  <path fill="#F5F9FF" fill-rule="nonzero" d="M3466 980c0,-1 -1,-1 -1,-1 -113,120 -292,219 -485,261 0,13 0,84 -2,413 -1,437 415,651 480,684 -190,-769 -41,-1234 8,-1357z"/>
  <path fill="#E3EEFF" fill-rule="nonzero" d="M3466 980c-49,123 -198,588 -8,1357 62,-29 484,-242 486,-680 2,-328 2,-399 2,-412 -192,-44 -368,-144 -480,-265z"/>
  <path fill="white" fill-rule="nonzero" d="M2988 1247l-1 406c-2,389 326,600 471,675 63,-30 476,-241 478,-671l0 -123c1,-196 2,-262 2,-283 -184,-43 -359,-140 -473,-260 -114,119 -291,214 -477,256zm470 1099l-4 -2c-126,-64 -215,-140 -267,-192 -144,-145 -217,-313 -217,-500l2 -418 7 -2c187,-41 367,-138 480,-259l6 -6 7 7c112,122 290,220 476,263l6 1 0 7c0,11 0,65 -1,289l-1 123c-2,449 -441,664 -491,687l-3 2z"/>
  <path fill="#296ACC" fill-rule="nonzero" d="M3073 1316l-1 338c-1,155 61,296 184,418 77,77 157,126 203,150 43,-23 125,-71 204,-148 124,-121 187,-261 188,-417l1 -337c-150,-42 -287,-115 -389,-206 -102,90 -239,162 -390,202zm385 943l-7 -4c-45,-24 -134,-76 -218,-160 -130,-128 -195,-277 -194,-442l2 -362 12 -3c155,-40 297,-114 400,-208l11 -10 12 11c101,95 242,169 397,211l12 3 -2 362c-1,165 -67,313 -198,440 -82,81 -169,132 -213,155l-1 0c-2,1 -4,2 -5,3l-8 4z"/>
  <path fill="#296ACC" fill-rule="nonzero" d="M3484 1746l0 81c0,11 -8,20 -19,20 -11,0 -20,-9 -20,-20l0 -81c-17,-8 -29,-25 -29,-44 0,-27 22,-49 49,-49 26,0 48,22 48,49 0,19 -12,36 -29,44zm-215 -153l0 287c0,32 391,32 391,0l0 -287 -391 0z"/>
  <path fill="#296ACC" fill-rule="nonzero" d="M3626 1573l-40 0 0 -20c0,-67 -54,-121 -121,-121 -67,0 -122,54 -122,121l0 20 -39 0 0 -20c0,-88 72,-161 161,-161 88,0 161,73 161,161l0 20z"/>
  <polygon fill="white" fill-rule="nonzero" points="2882,2788 4011,2788 4011,2565 2882,2565 "/>
  <path fill="#296ACC" fill-rule="nonzero" d="M3156 2684c0,27 -22,49 -49,49 -27,0 -48,-22 -48,-49 0,-27 21,-49 48,-49 27,0 49,22 49,49z"/>
  <path fill="#296ACC" fill-rule="nonzero" d="M3323 2684c0,27 -22,49 -49,49 -27,0 -48,-22 -48,-49 0,-27 21,-49 48,-49 27,0 49,22 49,49z"/>
  <path fill="#296ACC" fill-rule="nonzero" d="M3490 2684c0,27 -22,49 -49,49 -26,0 -48,-22 -48,-49 0,-27 22,-49 48,-49 27,0 49,22 49,49z"/>
  <path fill="#296ACC" fill-rule="nonzero" d="M3657 2684c0,27 -22,49 -48,49 -27,0 -49,-22 -49,-49 0,-27 22,-49 49,-49 26,0 48,22 48,49z"/>
  <path fill="#296ACC" fill-rule="nonzero" d="M3824 2684c0,27 -21,49 -48,49 -27,0 -49,-22 -49,-49 0,-27 22,-49 49,-49 27,0 48,22 48,49z"/>
  <path fill="#296ACC" fill-rule="nonzero" d="M3593 3101l-303 0c-42,0 -77,-34 -77,-77l0 0c0,-43 35,-78 77,-78l303 0c42,0 77,35 77,78l0 0c0,43 -35,77 -77,77z"/>
  <polygon fill="#80D1FF" fill-rule="nonzero" points="2997,3440 3928,3440 3928,3370 2997,3370 "/>
  <polygon fill="#80D1FF" fill-rule="nonzero" points="2697,3595 4241,3595 4241,3525 2697,3525 "/>
  <polygon fill="#80D1FF" fill-rule="nonzero" points="2761,3750 4176,3750 4176,3680 2761,3680 "/>
  <path fill="#007382" fill-rule="nonzero" d="M1618 3427c-112,113 -210,224 -303,431 -26,-67 -20,-52 -83,-200 -29,-70 -215,-31 -220,31 0,0 -33,427 164,595 197,168 753,-534 753,-534 178,-243 -120,-475 -311,-323z"/>
  <path fill="#092E66" fill-rule="nonzero" d="M3049 4934c-210,409 -1739,263 -2002,41 -195,-286 510,-426 526,-426 346,-9 823,21 999,21 409,63 523,208 477,364z"/>
  <path fill="#051733" fill-rule="nonzero" d="M1569 4762c285,68 537,90 847,42 0,0 -475,210 -477,218 -3,8 -370,-260 -370,-260z"/>
  <path fill="#092E66" fill-rule="nonzero" d="M3012 4981c-306,339 -1613,307 -1362,-2 229,-28 856,-181 911,-211 193,-156 576,30 451,213z"/>
  <path fill="#73CCFF" fill-rule="nonzero" d="M2816 5224c-15,-69 -94,-112 -178,-140 -40,48 -96,143 -100,283 187,42 304,-26 278,-143z"/>
  <path fill="#AAE0FF" fill-rule="nonzero" d="M2402 5054c0,0 -78,-13 -101,80 -8,32 -31,95 46,145 76,42 128,74 191,88 4,-140 60,-235 100,-283 -109,-35 -236,-30 -236,-30z"/>
  <path fill="#092E66" fill-rule="nonzero" d="M2377 5065c150,36 73,219 -4,209 84,11 -1481,12 -1329,-462 1,0 1,0 1,0 58,-99 241,-186 388,-121 343,182 665,308 944,374z"/>
  <path fill="#AAE0FF" fill-rule="nonzero" d="M2433 5263c0,0 -133,-10 -87,-117 46,-107 140,-44 140,-44 0,0 50,109 -53,161z"/>
  <path fill="white" fill-rule="nonzero" d="M2440 5273c-4,0 -6,-3 -6,-6 -4,-98 56,-161 59,-164 2,-3 6,-3 8,0 3,2 3,6 1,8 -1,1 -59,63 -56,155 0,4 -3,6 -6,7 0,0 0,0 0,0z"/>
  <path fill="white" fill-rule="nonzero" d="M2477 5287c-3,0 -6,-3 -6,-6 -3,-98 57,-161 59,-164 3,-2 7,-2 9,0 2,2 3,6 0,9 0,0 -59,62 -56,155 0,3 -2,6 -6,6 0,0 0,0 0,0z"/>
  <path fill="white" fill-rule="nonzero" d="M2517 5297c-3,0 -6,-3 -6,-6 -3,-98 57,-161 59,-164 3,-2 6,-2 9,0 2,2 2,6 0,9 -1,0 -59,62 -56,155 0,3 -2,6 -6,6 0,0 0,0 0,0z"/>
  <path fill="#051733" fill-rule="nonzero" d="M2393 5267c-32,18 -838,56 -1287,-234 -146,-94 -70,-229 -70,-229 0,0 105,392 1357,463z"/>
  <path fill="#051733" fill-rule="nonzero" d="M2303 5061c-1,0 -2,0 -3,0 -581,-173 -849,-351 -851,-353 -5,-2 -6,-8 -3,-12 3,-4 9,-6 13,-3 2,2 268,179 847,350 4,2 7,7 6,12 -1,3 -5,6 -9,6z"/>
  <path fill="#051733" fill-rule="nonzero" d="M1935 4931c-4,0 -8,-3 -9,-8 -1,-5 2,-9 7,-10 4,-1 370,-67 512,-128 5,-2 10,1 12,5 2,5 0,10 -4,12 -144,62 -501,126 -517,129 0,0 -1,0 -1,0z"/>
  <path fill="white" fill-rule="nonzero" d="M2594 4570c13,98 -684,121 -1040,-21 -53,-220 -237,-1225 312,-1222 593,3 671,976 728,1243z"/>
  <path fill="#F7A594" fill-rule="nonzero" d="M1033 3685l-8 -125 131 -19 49 111c6,33 -166,66 -172,33z"/>
  <path fill="#F7A594" fill-rule="nonzero" d="M1162 3560l31 -202c0,0 -46,-13 -50,42 -4,55 -94,89 -70,143 23,53 89,17 89,17z"/>
  <path fill="#F7A594" fill-rule="nonzero" d="M1029 3566c0,0 -98,-150 -106,-235 -1,-31 13,-40 13,-40l223 218c0,0 14,45 -3,64 -17,19 -82,46 -127,-7z"/>
  <path fill="#CC7767" fill-rule="nonzero" d="M1167 3513c0,0 2,35 -18,28 -59,-18 -63,-105 -63,-105l81 77z"/>
  <path fill="#404040" fill-rule="nonzero" d="M1255 3557l-415 -386c0,0 -15,-1 -24,5l438 402c3,-10 1,-21 1,-21z"/>
  <path fill="black" fill-rule="nonzero" d="M816 3176c-6,5 -10,12 -6,27 12,35 378,373 415,385 18,6 26,-1 29,-10l-438 -402z"/>
  <path fill="#F7A594" fill-rule="nonzero" d="M924 3310c0,0 4,-35 66,8 76,52 127,144 110,167 -22,30 -193,-106 -176,-175z"/>
  <path fill="#007382" fill-rule="nonzero" d="M1754 3343c-394,87 -288,1027 -260,1231 74,30 315,88 409,104 -189,-447 -288,-1292 -149,-1335z"/>
  <path fill="#F7A594" fill-rule="nonzero" d="M1985 3357c-44,213 -278,208 -282,88 0,-3 0,-7 0,-10l-19 -259 -2 -31 20 -4 187 -38 7 -1 5 17 24 67 60 171z"/>
  <path fill="#007382" fill-rule="nonzero" d="M1979 3341c-74,174 24,1084 92,1356 184,62 461,-29 535,-122 -53,-248 -137,-1116 -627,-1234z"/>
  <path fill="#007382" fill-rule="nonzero" d="M1961 3657c-29,157 26,429 68,570 113,83 288,40 288,-87 4,-115 -6,-244 -33,-389 -27,-327 -309,-324 -323,-94z"/>
  <path fill="#007382" fill-rule="nonzero" d="M1789 3868c-116,-41 -176,125 -92,183 201,135 513,317 568,201 81,-169 -212,-300 -476,-384z"/>
  <path fill="#F7A594" fill-rule="nonzero" d="M1682 3999l-86 -45c-54,-42 41,-128 79,-114l67 42c34,32 -14,114 -60,117z"/>
  <path fill="#F7A594" fill-rule="nonzero" d="M1604 3956c-70,-15 -46,-86 -30,-167 -56,-243 253,173 30,167z"/>
  <path fill="#F7A594" fill-rule="nonzero" d="M1635 3758c0,0 -23,-36 -73,-116 -23,5 -35,45 -5,80 27,30 66,51 78,36z"/>
  <path fill="#F7A594" fill-rule="nonzero" d="M1566 3737c-51,-29 -87,54 -73,120 20,100 94,50 116,24 41,-49 19,-109 -43,-144z"/>
  <path fill="#003331" fill-rule="nonzero" d="M1967 3938c-2,0 -5,-2 -6,-5 0,-2 -36,-224 9,-373 1,-4 4,-5 7,-4 3,1 5,4 4,7 -43,147 -8,366 -8,368 1,3 -1,7 -5,7 0,0 0,0 -1,0z"/>
  <path fill="#003331" fill-rule="nonzero" d="M2179 4280c-100,0 -219,-63 -226,-66 -3,-2 -4,-6 -2,-9 1,-3 5,-4 8,-2 2,1 231,122 314,31 73,-81 19,-429 18,-432 0,-4 2,-7 5,-7 4,-1 7,1 7,5 3,14 56,357 -21,442 -26,28 -63,38 -103,38z"/>
  <path fill="white" fill-rule="nonzero" d="M2098 3991c-1,0 -2,0 -3,-1 -146,-65 -330,-124 -331,-124 -4,-1 -5,-5 -4,-8 1,-3 4,-5 7,-4 2,1 186,60 333,125 3,2 5,5 3,8 -1,2 -3,4 -5,4z"/>
  <path fill="#D97661" fill-rule="nonzero" d="M1703 3439c-6,-57 -37,-272 -1,-298l187 -38c43,236 -117,353 -186,336z"/>
  <path fill="#F7A594" fill-rule="nonzero" d="M1958 3061c-9,193 -180,342 -307,335 -128,-7 -284,-170 -275,-362 9,-192 147,-342 307,-334 161,7 284,169 275,361z"/>
  <path fill="#0E0E0E" fill-rule="nonzero" d="M1785 2727c-161,-132 -270,-40 -370,59 -71,70 -121,121 -199,123 124,202 431,117 546,-57 -4,107 109,209 196,209 43,-113 -9,-360 -173,-334z"/>
  <path fill="#F7A594" fill-rule="nonzero" d="M1994 3078c-5,36 -38,62 -74,57 -36,-4 -62,-37 -58,-74 5,-36 38,-62 74,-57 37,4 62,37 58,74z"/>
  <path fill="#BD4A31" fill-rule="nonzero" d="M1572 3256c-5,0 -10,-1 -13,-4 -17,-11 -1,-110 5,-140 0,-2 2,-3 4,-3 2,0 4,2 4,4 -11,59 -17,127 -9,133 11,8 38,-6 47,-12 2,-1 5,-1 6,1 1,2 0,4 -1,5 -3,2 -25,16 -43,16z"/>
  <path fill="#0E0E0E" fill-rule="nonzero" d="M1690 3090c3,15 12,26 20,24 7,-1 11,-15 7,-31 -3,-15 -12,-26 -20,-24 -7,1 -11,15 -7,31z"/>
  <path fill="#0E0E0E" fill-rule="nonzero" d="M1446 3150c3,14 12,24 19,23 7,-2 10,-15 7,-29 -3,-14 -12,-25 -19,-23 -7,1 -10,14 -7,29z"/>
  <path fill="#803221" fill-rule="nonzero" d="M1685 3296c-6,0 -10,-1 -10,-1 -3,0 -4,-2 -4,-4 0,-2 2,-4 5,-4 0,0 40,5 68,-19 18,-15 28,-39 29,-71 0,-2 2,-4 4,-4 3,0 4,2 4,4 -1,35 -12,60 -32,77 -22,19 -49,22 -64,22z"/>
  <path fill="#803221" fill-rule="nonzero" d="M1661 3050c0,0 0,0 0,0 -2,0 -4,-2 -4,-4 1,-16 12,-29 28,-34 17,-5 33,0 43,13 1,2 1,4 -1,6 -2,1 -4,0 -6,-1 -7,-10 -20,-14 -34,-10 -10,3 -21,11 -22,26 0,2 -2,4 -4,4z"/>
  <path fill="#803221" fill-rule="nonzero" d="M1428 3106c-1,0 -1,0 -1,0 -2,0 -4,-2 -3,-4 2,-24 16,-34 28,-36 15,-2 29,8 35,24 1,2 0,4 -2,5 -3,1 -5,-1 -5,-3 -5,-12 -16,-19 -27,-18 -9,1 -20,9 -22,28 0,2 -1,4 -3,4z"/>
  <path fill="#AAE0FF" fill-rule="nonzero" d="M926 2687l-843 0c-46,0 -83,-37 -83,-83l0 -335c0,-46 37,-83 83,-83l843 0c46,0 83,37 83,83l0 335c0,46 -37,83 -83,83z"/>
  <polygon fill="#AAE0FF" fill-rule="nonzero" points="842,2606 842,2832 612,2602 "/>
  <path fill="white" fill-rule="nonzero" d="M237 2441c0,24 -20,44 -44,44 -24,0 -44,-20 -44,-44 0,-24 20,-44 44,-44 24,0 44,20 44,44z"/>
  <path fill="white" fill-rule="nonzero" d="M384 2441c0,24 -19,44 -44,44 -24,0 -44,-20 -44,-44 0,-24 20,-44 44,-44 25,0 44,20 44,44z"/>
  <path fill="white" fill-rule="nonzero" d="M532 2441c0,24 -20,44 -44,44 -24,0 -44,-20 -44,-44 0,-24 20,-44 44,-44 24,0 44,20 44,44z"/>
  <path fill="white" fill-rule="nonzero" d="M679 2441c0,24 -19,44 -44,44 -24,0 -44,-20 -44,-44 0,-24 20,-44 44,-44 25,0 44,20 44,44z"/>
  <path fill="white" fill-rule="nonzero" d="M827 2441c0,24 -20,44 -44,44 -25,0 -44,-20 -44,-44 0,-24 19,-44 44,-44 24,0 44,20 44,44z"/>
  <path fill="#AAE0FF" fill-rule="nonzero" d="M1853 1994l-534 0c-55,0 -99,-44 -99,-99l0 -396c0,-55 44,-99 99,-99l534 0c55,0 99,44 99,99l0 396c0,55 -44,99 -99,99z"/>
  <polygon fill="#AAE0FF" fill-rule="nonzero" points="1485,1975 1569,2122 1661,1975 "/>
  <polygon fill="#296ACC" fill-rule="nonzero" points="1570,1683 1424,1573 1715,1573 "/>
  <polygon fill="#296ACC" fill-rule="nonzero" points="1728,1601 1728,1792 1412,1792 1412,1601 1570,1720 "/>
  <path fill="#2E5B99" fill-rule="nonzero" d="M6165 5305l-5393 0c-17,0 -31,-14 -31,-30 0,-17 14,-31 31,-31l5393 0c17,0 30,14 30,31 0,16 -13,30 -30,30z"/>
 </g>
</svg>
