<?xml version="1.0" encoding="UTF-8"?>
<!DOCTYPE svg PUBLIC "-//W3C//DTD SVG 1.1//EN" "http://www.w3.org/Graphics/SVG/1.1/DTD/svg11.dtd">
<!-- Creator: CorelDRAW X8 -->
<svg xmlns="http://www.w3.org/2000/svg" xml:space="preserve" width="6.94444in" height="5.17513in" version="1.1" shape-rendering="geometricPrecision" text-rendering="geometricPrecision" image-rendering="optimizeQuality" fill-rule="evenodd" clip-rule="evenodd"
viewBox="0 0 6944 5175"
 xmlns:xlink="http://www.w3.org/1999/xlink">
 <g id="Layer_x0020_1">
  <metadata id="CorelCorpID_0Corel-Layer"/>
  <polygon fill="#ECEDEC" fill-rule="nonzero" points="0,4551 6944,4551 6944,4548 0,4548 "/>
  <path fill="#ECEDEC" fill-rule="nonzero" d="M610 3c-42,0 -76,34 -76,76l0 3770c0,42 34,76 76,76l2682 0c42,0 76,-34 76,-76l0 -3770c0,-42 -34,-76 -76,-76l-2682 0zm2682 3925l-2682 0c-44,0 -79,-35 -79,-79l0 -3770c0,-43 35,-79 79,-79l2682 0c44,0 79,36 79,79l0 3770c0,44 -35,79 -79,79z"/>
  <path fill="#ECEDEC" fill-rule="nonzero" d="M3614 3c-42,0 -76,34 -76,76l0 3770c0,42 34,76 76,76l2682 0c42,0 76,-34 76,-76l0 -3770c0,-42 -34,-76 -76,-76l-2682 0zm2682 3925l-2682 0c-44,0 -79,-35 -79,-79l0 -3770c0,-43 35,-79 79,-79l2682 0c44,0 79,36 79,79l0 3770c0,44 -35,79 -79,79z"/>
  <polygon fill="#ECEDEC" fill-rule="nonzero" points="712,4684 1073,4684 1073,4680 712,4680 "/>
  <polygon fill="#ECEDEC" fill-rule="nonzero" points="2016,4646 2641,4646 2641,4642 2016,4642 "/>
  <polygon fill="#ECEDEC" fill-rule="nonzero" points="1087,4813 1932,4813 1932,4809 1087,4809 "/>
  <polygon fill="#ECEDEC" fill-rule="nonzero" points="5965,4789 6232,4789 6232,4786 5965,4786 "/>
  <polygon fill="#ECEDEC" fill-rule="nonzero" points="5073,4789 5841,4789 5841,4786 5073,4786 "/>
  <polygon fill="#ECEDEC" fill-rule="nonzero" points="3570,4731 4604,4731 4604,4727 3570,4727 "/>
  <polygon fill="#E8E8E7" fill-rule="nonzero" points="2356,3343 1598,3343 1552,2812 2310,2812 "/>
  <polygon fill="#F0F1EF" fill-rule="nonzero" points="2395,3343 1637,3343 1591,2812 2349,2812 "/>
  <polygon fill="#FEFEFE" fill-rule="nonzero" points="1741,3229 1716,2926 2246,2926 2271,3229 "/>
  <polygon fill="#E8E8E7" fill-rule="nonzero" points="2734,4548 2842,4548 2842,3343 2734,3343 "/>
  <polygon fill="#F0F1EF" fill-rule="nonzero" points="2801,4548 2876,4548 2876,3343 2801,3343 "/>
  <polygon fill="#F0F1EF" fill-rule="nonzero" points="1829,3476 2876,3476 2876,3343 1829,3343 "/>
  <polygon fill="#E8E8E7" fill-rule="nonzero" points="1757,4548 1866,4548 1866,3476 1757,3476 "/>
  <polygon fill="#F0F1EF" fill-rule="nonzero" points="1825,4548 1900,4548 1900,3476 1825,3476 "/>
  <polygon fill="#E8E8E7" fill-rule="nonzero" points="987,4548 1095,4548 1095,3476 987,3476 "/>
  <polygon fill="#F0F1EF" fill-rule="nonzero" points="1054,4548 1129,4548 1129,3476 1054,3476 "/>
  <polygon fill="#E8E8E7" fill-rule="nonzero" points="2049,4548 2157,4548 2157,3476 2049,3476 "/>
  <polygon fill="#F0F1EF" fill-rule="nonzero" points="2116,4548 2191,4548 2191,3476 2116,3476 "/>
  <polygon fill="#E8E8E7" fill-rule="nonzero" points="987,3476 1829,3476 1829,3343 987,3343 "/>
  <polygon fill="#E8E8E7" fill-rule="nonzero" points="958,2184 4100,2184 4100,381 958,381 "/>
  <polygon fill="#F0F1EF" fill-rule="nonzero" points="998,2184 4184,2184 4184,381 998,381 "/>
  <polygon fill="#E8E8E7" fill-rule="nonzero" points="958,2340 4100,2340 4100,2184 958,2184 "/>
  <polygon fill="#F0F1EF" fill-rule="nonzero" points="1138,2340 4324,2340 4324,2184 1138,2184 "/>
  <polygon fill="#FBFCFB" fill-rule="nonzero" points="1115,2066 4067,2066 4067,499 1115,499 "/>
  <polygon fill="#FEFEFE" fill-rule="nonzero" points="1332,2066 2022,499 2348,499 1658,2066 "/>
  <path fill="#F0F1EF" fill-rule="nonzero" d="M1170 1949c-5,0 -9,-3 -9,-8l0 -1365c0,-5 4,-9 9,-9 4,0 8,4 8,9l0 1365c0,5 -4,8 -8,8z"/>
  <polygon fill="#FEFEFE" fill-rule="nonzero" points="1728,2066 2418,499 2545,499 1855,2066 "/>
  <polygon fill="#E8E8E7" fill-rule="nonzero" points="4052,2066 4067,2066 4067,499 4052,499 "/>
  <polygon fill="#F3F4F2" fill-rule="nonzero" points="4212,676 4184,676 4184,545 4201,545 "/>
  <polygon fill="#EEEEEC" fill-rule="nonzero" points="4067,676 4184,676 4184,545 4067,545 "/>
  <polygon fill="#F0F3F2" fill-rule="nonzero" points="4052,676 2467,676 2525,545 4052,545 "/>
  <polygon fill="#EEEEEC" fill-rule="nonzero" points="1115,676 1070,676 1059,545 1115,545 "/>
  <path fill="#F0F3F2" fill-rule="nonzero" d="M2340 676l-70 0 58 -131 70 0 -58 131zm-396 0l-766 0 0 -100c0,-5 -4,-9 -8,-9 -5,0 -9,4 -9,9l0 100 -46 0 0 -131 887 0 -58 131z"/>
  <polygon fill="#F3F4F2" fill-rule="nonzero" points="2270,676 1944,676 2002,545 2328,545 "/>
  <path fill="#EEEEEC" fill-rule="nonzero" d="M1178 676l-17 0 0 -100c0,-5 4,-9 9,-9 4,0 8,4 8,9l0 100z"/>
  <polygon fill="#F3F4F2" fill-rule="nonzero" points="2467,676 2340,676 2398,545 2525,545 "/>
  <polygon fill="#E9EAEA" fill-rule="nonzero" points="4052,676 4067,676 4067,545 4052,545 "/>
  <polygon fill="#F3F4F2" fill-rule="nonzero" points="4212,892 4184,892 4184,761 4201,761 "/>
  <path fill="#EEEEEC" fill-rule="nonzero" d="M4184 892l-117 0 0 -131 117 0 0 131zm-3069 0l-45 0 -11 -131 56 0 0 131z"/>
  <path fill="#F0F3F2" fill-rule="nonzero" d="M4052 892l-1680 0 58 -131 1622 0 0 131zm-1807 0l-70 0 58 -131 70 0 -58 131zm-396 0l-671 0 0 -131 729 0 -58 131zm-688 0l-46 0 0 -131 46 0 0 131z"/>
  <polygon fill="#F3F4F2" fill-rule="nonzero" points="2175,892 1849,892 1907,761 2233,761 "/>
  <polygon fill="#EEEEEC" fill-rule="nonzero" points="1161,892 1178,892 1178,761 1161,761 "/>
  <polygon fill="#F3F4F2" fill-rule="nonzero" points="2372,892 2245,892 2303,761 2430,761 "/>
  <polygon fill="#E9EAEA" fill-rule="nonzero" points="4052,892 4067,892 4067,761 4052,761 "/>
  <polygon fill="#F3F4F2" fill-rule="nonzero" points="4212,1108 4184,1108 4184,976 4201,976 "/>
  <path fill="#EEEEEC" fill-rule="nonzero" d="M4184 1108l-117 0 0 -132 117 0 0 132zm-3069 0l-45 0 -11 -132 56 0 0 132z"/>
  <path fill="#F0F3F2" fill-rule="nonzero" d="M4052 1108l-1775 0 58 -132 1717 0 0 132zm-1902 0l-70 0 58 -132 70 0 -58 132zm-396 0l-576 0 0 -132 634 0 -58 132zm-593 0l-46 0 0 -132 46 0 0 132z"/>
  <polygon fill="#F3F4F2" fill-rule="nonzero" points="2080,1108 1754,1108 1812,976 2138,976 "/>
  <polygon fill="#EEEEEC" fill-rule="nonzero" points="1161,1108 1178,1108 1178,976 1161,976 "/>
  <polygon fill="#F3F4F2" fill-rule="nonzero" points="2277,1108 2150,1108 2208,976 2335,976 "/>
  <polygon fill="#E9EAEA" fill-rule="nonzero" points="4052,1108 4067,1108 4067,976 4052,976 "/>
  <polygon fill="#F3F4F2" fill-rule="nonzero" points="4210,1295 4184,1295 4184,1192 4201,1192 "/>
  <path fill="#EEEEEC" fill-rule="nonzero" d="M1115 1324l-45 0 -11 -132 56 0 0 132zm3069 -29l-117 0 0 -103 117 0 0 103z"/>
  <path fill="#F0F3F2" fill-rule="nonzero" d="M3625 1324l-1443 0 58 -132 1812 0 0 103 -400 0c0,0 -10,10 -27,29zm-1570 0l-70 0 58 -132 70 0 -58 132zm-396 0l-481 0 0 -132 539 0 -58 132zm-498 0l-46 0 0 -132 46 0 0 132z"/>
  <polygon fill="#F3F4F2" fill-rule="nonzero" points="1985,1324 1659,1324 1717,1192 2043,1192 "/>
  <polygon fill="#EEEEEC" fill-rule="nonzero" points="1161,1324 1178,1324 1178,1192 1161,1192 "/>
  <polygon fill="#F3F4F2" fill-rule="nonzero" points="2182,1324 2055,1324 2113,1192 2240,1192 "/>
  <polygon fill="#E9EAEA" fill-rule="nonzero" points="4052,1295 4067,1295 4067,1192 4052,1192 "/>
  <polygon fill="#EEEEEC" fill-rule="nonzero" points="1115,1539 1070,1539 1059,1408 1115,1408 "/>
  <path fill="#F0F3F2" fill-rule="nonzero" d="M3481 1539l-1394 0 58 -131 1415 0c-24,35 -51,79 -79,131zm-1521 0l-70 0 58 -131 70 0 -58 131zm-396 0l-386 0 0 -131 444 0 -58 131zm-403 0l-46 0 0 -131 46 0 0 131z"/>
  <polygon fill="#F3F4F2" fill-rule="nonzero" points="1890,1539 1564,1539 1622,1408 1948,1408 "/>
  <polygon fill="#EEEEEC" fill-rule="nonzero" points="1161,1539 1178,1539 1178,1408 1161,1408 "/>
  <polygon fill="#F3F4F2" fill-rule="nonzero" points="2087,1539 1960,1539 2018,1408 2145,1408 "/>
  <polygon fill="#EEEEEC" fill-rule="nonzero" points="1115,1755 1070,1755 1059,1624 1115,1624 "/>
  <path fill="#F0F3F2" fill-rule="nonzero" d="M3388 1755l-486 0c-1,-2 -2,-4 -4,-6 -3,-3 -8,-5 -17,-7l-7 -1c-2,0 -5,0 -9,0 -4,-1 -8,-1 -13,-1 -3,0 -5,0 -8,0 -6,1 -11,2 -16,5 -9,4 -13,7 -19,10 0,0 0,0 0,0l-228 0c-13,-5 -29,-10 -43,-15 -21,-8 -43,-15 -65,-21 -43,-13 -88,-24 -133,-31 -64,-11 -130,-17 -196,-17 -23,0 -45,1 -68,2 -17,1 -35,11 -44,25 -2,3 -4,6 -5,9 -5,10 -7,22 -6,34 1,5 1,9 2,14l-31 0 58 -131 1390 0c-18,40 -35,83 -52,131zm-1523 0l-70 0 58 -131 70 0 -58 131zm-396 0l-291 0 0 -131 349 0 -58 131zm-308 0l-46 0 0 -131 46 0 0 131z"/>
  <polygon fill="#F3F4F2" fill-rule="nonzero" points="1795,1755 1469,1755 1527,1624 1853,1624 "/>
  <polygon fill="#EEEEEC" fill-rule="nonzero" points="1161,1755 1178,1755 1178,1624 1161,1624 "/>
  <polygon fill="#F3F4F2" fill-rule="nonzero" points="1992,1755 1865,1755 1923,1624 2050,1624 "/>
  <polygon fill="#ECEDEC" fill-rule="nonzero" points="5075,1228 5921,1228 5921,381 5075,381 "/>
  <polygon fill="#E1E1E0" fill-rule="nonzero" points="5038,1228 5075,1228 5075,381 5038,381 "/>
  <polygon fill="#FEFEFE" fill-rule="nonzero" points="5190,1113 5807,1113 5807,496 5190,496 "/>
  <polygon fill="#F4F6F5" fill-rule="nonzero" points="5498,1011 5705,804 5498,598 5292,804 "/>
  <polygon fill="#ECEDEC" fill-rule="nonzero" points="4784,2340 5630,2340 5630,1494 4784,1494 "/>
  <polygon fill="#E1E1E0" fill-rule="nonzero" points="4746,2340 4784,2340 4784,1494 4746,1494 "/>
  <polygon fill="#FEFEFE" fill-rule="nonzero" points="4898,2225 5515,2225 5515,1609 4898,1609 "/>
  <path fill="#F4F6F5" fill-rule="nonzero" d="M5163 2048l88 0c48,0 87,-39 87,-87l0 -88c0,-48 -39,-88 -87,-88l-88 0c-48,0 -88,40 -88,88l0 88c0,48 40,87 88,87z"/>
  <polygon fill="#F0F1EF" fill-rule="nonzero" points="4063,4491 4274,4491 4274,2751 4063,2751 "/>
  <polygon fill="#F0F1EF" fill-rule="nonzero" points="4092,4548 6118,4548 6118,4491 4092,4491 "/>
  <polygon fill="#FBFCFB" fill-rule="nonzero" points="4274,4491 6147,4491 6147,2751 4274,2751 "/>
  <path fill="#F0F1EF" fill-rule="nonzero" d="M4641 3376c-105,0 -190,85 -190,189 0,104 85,189 190,189l1140 0c104,0 189,-85 189,-189 0,-104 -85,-189 -189,-189l-1140 0zm1140 392l-1140 0c-112,0 -203,-91 -203,-203 0,-112 91,-203 203,-203l1140 0c111,0 202,91 202,203 0,112 -91,203 -202,203z"/>
  <path fill="#F0F1EF" fill-rule="nonzero" d="M4641 3880c-105,0 -190,85 -190,190 0,104 85,189 190,189l1140 0c104,0 189,-85 189,-189 0,-105 -85,-190 -189,-190l-1140 0zm1140 393l-1140 0c-112,0 -203,-91 -203,-203 0,-112 91,-203 203,-203l1140 0c111,0 202,91 202,203 0,112 -91,203 -202,203z"/>
  <path fill="#ECEDEC" fill-rule="nonzero" d="M5383 3521l-344 0c-24,0 -43,-19 -43,-42 0,-23 19,-42 43,-42l344 0c23,0 42,19 42,42 0,23 -19,42 -42,42z"/>
  <path fill="#F0F1EF" fill-rule="nonzero" d="M4641 2871c-105,0 -190,85 -190,189 0,105 85,189 190,189l1140 0c104,0 189,-84 189,-189 0,-104 -85,-189 -189,-189l-1140 0zm1140 392l-1140 0c-112,0 -203,-91 -203,-203 0,-112 91,-203 203,-203l1140 0c111,0 202,91 202,203 0,112 -91,203 -202,203z"/>
  <path fill="#ECEDEC" fill-rule="nonzero" d="M5383 3016l-344 0c-24,0 -43,-19 -43,-42 0,-23 19,-42 43,-42l344 0c23,0 42,19 42,42 0,23 -19,42 -42,42z"/>
  <path fill="#ECEDEC" fill-rule="nonzero" d="M5383 4026l-344 0c-24,0 -43,-19 -43,-42 0,-24 19,-43 43,-43l344 0c23,0 42,19 42,43 0,23 -19,42 -42,42z"/>
  <polygon fill="#F0F1EF" fill-rule="nonzero" points="4274,2751 6186,2751 6186,2663 4274,2663 "/>
  <polygon fill="#E8E8E7" fill-rule="nonzero" points="4022,2751 4274,2751 4274,2663 4022,2663 "/>
  <path fill="#F4F6F5" fill-rule="nonzero" d="M6165 5018c0,87 -1206,157 -2693,157 -1487,0 -2693,-70 -2693,-157 0,-87 1206,-157 2693,-157 1487,0 2693,70 2693,157z"/>
  <path fill="#3571B7" fill-rule="nonzero" d="M5745 1295l-2093 0c0,0 -377,347 -377,1192 0,726 285,1710 178,2113 -81,304 -473,356 -662,364l1993 0c0,0 655,39 762,-364 108,-403 -178,-1387 -178,-2113 0,-845 377,-1192 377,-1192z"/>
  <path fill="#C1D6EF" fill-rule="nonzero" d="M4831 4965c-29,0 -47,-1 -47,-1l-1993 0c189,-8 581,-60 662,-364 10,-36 16,-76 20,-120 1,3 3,6 4,9 6,14 17,25 30,32 16,83 -1,144 19,218 21,81 112,123 112,123l0 0 -3 -35 14 32c0,0 43,-58 43,-126 0,-11 -1,-23 -4,-36 -20,-74 -64,-119 -90,-200 8,-12 12,-27 11,-42 -20,-238 -73,-467 -134,-694 -43,-161 -86,-322 -129,-484 -39,-271 -71,-545 -71,-790 0,-845 377,-1192 377,-1192l2093 0c0,0 -124,115 -230,371 -58,142 -111,326 -134,559 -4,37 -7,76 -9,115 -3,47 -4,96 -4,147l0 0c0,611 202,1405 203,1882 0,43 -2,84 -6,122 -2,20 -4,39 -7,57 0,1 -1,2 -1,3 -3,17 -6,34 -11,49 -20,77 -60,138 -112,186 -2,1 -3,2 -4,3 -177,159 -482,176 -599,176zm-262 -614l0 0c0,-31 -1,-64 -3,-98l-884 0c2,34 3,67 3,98l884 0zm782 -197l0 0c-3,-31 -7,-64 -10,-98l-1674 0c3,34 6,66 9,98l1675 0zm-301 -197l0 0c-4,-32 -8,-65 -13,-98l-1394 0c4,34 8,66 12,98l1395 0zm251 -196l0 0c-5,-33 -10,-66 -15,-98l-1672 0c5,33 10,65 15,98l1672 0zm-30 -197l0 0c-5,-33 -9,-66 -14,-98l-1672 0c2,14 4,29 6,44 3,18 6,36 9,54l1671 0zm-29 -197l0 0c-5,-33 -10,-66 -14,-98l-1673 0c5,32 10,65 15,98l1672 0zm-28 -197l0 0c-4,-33 -8,-65 -12,-98l-1674 0c5,33 9,65 13,98l1673 0zm-24 -197l0 0c-4,-32 -7,-65 -10,-98l-1675 0c4,33 7,65 11,98l1674 0zm-18 -197l0 0c-3,-33 -5,-65 -7,-98l-1676 0c2,33 4,65 7,98l1676 0zm-1161 -196l0 0c-1,-32 -2,-63 -2,-93l0 -6 -526 0 0 6c0,30 0,61 1,93l527 0zm-520 -295c-3,31 -5,64 -6,98l1677 0c1,-34 2,-67 5,-98l-1676 0zm256 -781c-71,94 -198,310 -246,682l1675 0c31,-292 106,-517 184,-682l-1613 0z"/>
  <path fill="#6994CD" fill-rule="nonzero" d="M5176 2186l-1675 0c48,-372 175,-588 246,-682l1613 0c-78,165 -153,390 -184,682z"/>
  <path fill="#9FBEE4" fill-rule="nonzero" d="M5162 2383l-1677 0c1,-34 3,-67 6,-98l1676 0c-3,31 -4,64 -5,98z"/>
  <path fill="#9FBEE4" fill-rule="nonzero" d="M4011 2580l-527 0c-1,-32 -1,-63 -1,-93l0 -6 526 0 0 6c0,30 1,61 2,93z"/>
  <path fill="#9FBEE4" fill-rule="nonzero" d="M5172 2776l-1676 0c-3,-33 -5,-65 -7,-98l1676 0c2,33 4,65 7,98z"/>
  <path fill="#9FBEE4" fill-rule="nonzero" d="M5190 2973l-1674 0c-4,-33 -7,-65 -11,-98l1675 0c3,33 6,66 10,98z"/>
  <path fill="#9FBEE4" fill-rule="nonzero" d="M5214 3170l-1673 0c-4,-33 -8,-65 -13,-98l1674 0c4,33 8,65 12,98z"/>
  <path fill="#9FBEE4" fill-rule="nonzero" d="M5242 3367l-1672 0c-5,-33 -10,-66 -15,-98l1673 0c4,32 9,65 14,98z"/>
  <path fill="#9FBEE4" fill-rule="nonzero" d="M5271 3564l-1671 0c-3,-18 -6,-36 -9,-54 -2,-15 -4,-30 -6,-44l1672 0c5,32 9,65 14,98z"/>
  <path fill="#9FBEE4" fill-rule="nonzero" d="M5301 3761l-1672 0c-5,-33 -10,-65 -15,-98l1672 0c5,32 10,65 15,98z"/>
  <path fill="#9FBEE4" fill-rule="nonzero" d="M5050 3957l-1395 0c-4,-32 -8,-64 -12,-98l1394 0c5,33 9,66 13,98z"/>
  <path fill="#9FBEE4" fill-rule="nonzero" d="M5351 4154l-1675 0c-3,-32 -6,-64 -9,-98l1674 0c3,34 7,67 10,98z"/>
  <path fill="#9FBEE4" fill-rule="nonzero" d="M4569 4351l-884 0c0,-31 -1,-64 -3,-98l884 0c2,34 3,67 3,98z"/>
  <path fill="#3571B7" fill-rule="nonzero" d="M4945 4857c-107,20 -214,5 -321,0 -51,-3 -103,-3 -154,4 -50,6 -99,19 -150,15 17,-9 32,-19 47,-32 3,-2 1,-7 -2,-8 -157,-55 -300,94 -456,59 44,-32 107,-33 144,-76 3,-3 1,-9 -3,-9 -140,-2 -272,52 -411,64 -6,1 -6,11 0,11 134,-12 263,-63 398,-64 -40,36 -102,37 -143,73 -3,3 -2,8 2,9 157,43 301,-107 456,-60 -16,12 -33,23 -52,32 -4,2 -3,9 1,9 51,9 101,-2 152,-10 57,-9 114,-10 171,-7 108,5 216,20 323,0 7,-1 4,-11 -2,-10z"/>
  <path fill="#F6B275" fill-rule="nonzero" d="M2109 1808c9,11 20,24 31,37 10,12 21,24 32,36 23,24 45,48 69,69 48,44 99,83 153,107 6,3 13,6 20,9 3,1 6,2 9,3 3,1 6,2 9,3 13,3 27,5 41,6 29,1 60,0 92,-5 32,-5 64,-12 96,-21 32,-8 64,-18 95,-29l28 55c-62,38 -127,68 -199,88 -35,10 -73,17 -113,19 -20,0 -41,-1 -62,-5 -5,0 -11,-2 -16,-3 -6,-1 -11,-2 -15,-4 -10,-3 -20,-6 -29,-10 -74,-28 -135,-72 -191,-120 -27,-24 -54,-49 -79,-76 -12,-13 -24,-27 -36,-41 -12,-14 -23,-27 -35,-44l100 -74z"/>
  <path fill="#3571B7" fill-rule="nonzero" d="M1968 1769c-3,78 27,218 27,218l193 -24c0,0 7,-205 -30,-254 -63,-84 -187,-14 -190,60z"/>
  <path fill="#F6B275" fill-rule="nonzero" d="M2731 2043l90 -82 12 88c0,0 -38,50 -80,29l-22 -35z"/>
  <polygon fill="#F6B275" fill-rule="nonzero" points="2866,1965 2904,2015 2833,2049 2821,1961 "/>
  <path fill="#243840" fill-rule="nonzero" d="M2844 1740c9,0 14,0 21,1 4,0 7,0 9,0l7 1c9,2 14,4 17,7 4,3 4,7 5,10l3 11 13 42 26 84 51 169c35,112 70,225 103,337 67,226 131,452 194,678 62,227 121,454 182,681 61,227 114,456 134,694 3,38 -26,71 -64,74 -29,2 -56,-15 -68,-40 -98,-217 -163,-443 -219,-671 -58,-228 -117,-456 -172,-684 -55,-229 -109,-457 -160,-687 -26,-114 -49,-230 -74,-345l-37 -172 -18 -86 -10 -43 -2 -11c-1,-4 -2,-7 -1,-11 2,-5 5,-9 12,-15l6 -4c1,-2 4,-3 7,-5 6,-3 10,-6 19,-10 5,-3 10,-4 16,-5z"/>
  <path fill="#3571B7" fill-rule="nonzero" d="M3595 4489c-2,-8 -10,-12 -18,-10l-30 7 -31 8c-8,2 -12,10 -11,18 19,88 1,150 21,227 21,81 112,123 112,123l-3 -35 14 32c0,0 60,-81 39,-162 -20,-77 -67,-122 -93,-208z"/>
  <path fill="#709CD2" fill-rule="nonzero" d="M3638 4862c0,0 -91,-42 -112,-123 -20,-77 -2,-139 -21,-227 0,-1 0,-2 0,-3 0,-7 4,-13 11,-15l31 -8 30 -7c1,-1 3,-1 4,-1 6,0 12,4 14,11 26,86 73,131 93,208 3,13 4,25 4,36 0,68 -43,126 -43,126l-14 -32 3 35z"/>
  <path fill="#243840" fill-rule="nonzero" d="M3619 4690c3,10 -3,20 -14,23 -10,3 -20,-3 -23,-14 -3,-10 4,-20 14,-23 10,-3 20,4 23,14z"/>
  <path fill="#243840" fill-rule="nonzero" d="M3636 4832c-2,0 -5,-1 -5,-4l-35 -132c0,-3 1,-5 3,-6 3,0 5,1 6,4l34 132c1,3 -1,5 -3,6z"/>
  <path fill="#3571B7" fill-rule="nonzero" d="M3524 4012l-188 48c-10,3 -21,-3 -24,-14 -3,-11 4,-22 14,-25l187 -48c11,-3 22,4 25,14 3,11 -4,22 -14,25z"/>
  <path fill="#243840" fill-rule="nonzero" d="M2573 1470c-3,8 -1,17 4,20 6,2 13,-3 16,-11 3,-9 2,-17 -4,-20 -5,-2 -12,3 -16,11z"/>
  <path fill="#243840" fill-rule="nonzero" d="M2587 1459l22 3c0,0 -17,11 -22,-3z"/>
  <path fill="#F18E46" fill-rule="nonzero" d="M2577 1481c0,0 0,42 8,66 -15,6 -32,-7 -32,-7l24 -59z"/>
  <path fill="#243840" fill-rule="nonzero" d="M2607 1419l-2 -1c-19,-15 -37,-11 -38,-11 -3,1 -6,-1 -7,-3 0,-3 1,-6 4,-7 1,0 25,-6 47,13 3,2 3,5 1,8 -1,1 -3,2 -5,1z"/>
  <path fill="#F6B275" fill-rule="nonzero" d="M2279 1466c6,67 -17,178 -68,216 0,0 39,71 162,87 135,19 72,-58 72,-58 -72,-27 -65,-81 -46,-131l-120 -114z"/>
  <path fill="#F6B275" fill-rule="nonzero" d="M2648 1827c10,63 24,128 37,192 8,32 15,64 24,95 8,32 17,63 27,93 5,15 10,31 15,45l8 23 2 5 1 2 1 2c1,3 4,7 13,10 9,4 21,6 34,7 27,1 58,-2 89,-7 31,-6 63,-13 93,-22l26 57c-16,9 -31,17 -48,25 -15,7 -32,14 -49,20 -33,13 -69,23 -109,26 -20,2 -41,2 -65,-4 -24,-6 -51,-19 -71,-43 -5,-5 -9,-12 -13,-18 -2,-3 -3,-6 -5,-10l-2 -6 -11 -24c-7,-16 -14,-33 -20,-49 -12,-33 -23,-66 -33,-99 -10,-33 -19,-66 -27,-100 -17,-67 -31,-133 -41,-202l124 -18z"/>
  <path fill="#F6B275" fill-rule="nonzero" d="M2978 2276l54 -42 24 82c0,0 -73,53 -93,-9l15 -31z"/>
  <polygon fill="#F6B275" fill-rule="nonzero" points="3080,2248 3100,2309 3056,2316 3032,2234 "/>
  <polygon fill="#F6B275" fill-rule="nonzero" points="2079,4895 2191,4904 2224,4646 2112,4638 "/>
  <polygon fill="#F6B275" fill-rule="nonzero" points="1361,4568 1458,4627 1620,4426 1522,4367 "/>
  <path fill="#3571B7" fill-rule="nonzero" d="M1491 4626c12,16 23,26 31,26 3,0 6,-1 8,-5 1,-1 1,-3 1,-3 -3,-7 -24,-15 -40,-18zm35 31c-1,0 -3,1 -4,1 -15,-1 -31,-22 -39,-35l0 -3 3 -1c4,1 44,9 50,23 1,3 0,6 -2,9 -2,3 -5,5 -8,6z"/>
  <path fill="#3571B7" fill-rule="nonzero" d="M1491 4620c13,1 35,-3 39,-9 1,-1 1,-3 -1,-5 -2,-3 -4,-4 -7,-4 -9,0 -24,11 -31,18zm29 2c-12,4 -28,4 -36,2l-1 -2 0 -2c1,-1 23,-24 39,-23 5,0 9,2 11,5 5,5 3,10 2,12 -3,4 -8,6 -15,8z"/>
  <path fill="#243840" fill-rule="nonzero" d="M1487 4606l-92 -89c-3,-3 -8,-4 -12,-1l-78 61c-8,6 -9,19 -1,27 33,30 50,43 91,82 25,24 59,62 93,95 34,32 68,2 57,-15 -52,-75 -44,-104 -49,-142 -1,-7 -4,-14 -9,-18z"/>
  <path fill="#3571B7" fill-rule="nonzero" d="M2213 4899c25,4 43,3 50,-3 3,-2 4,-5 4,-8 -1,-2 -1,-2 -2,-3 -7,-4 -33,6 -52,14zm26 8c-12,0 -25,-2 -35,-4l-2 -2 2 -3c5,-2 50,-25 64,-18 2,2 4,4 4,7 0,6 -2,10 -5,13 -6,5 -16,7 -28,7z"/>
  <path fill="#3571B7" fill-rule="nonzero" d="M2233 4858c-16,0 -23,26 -25,38 14,-9 33,-28 31,-35 0,-1 0,-3 -5,-3l-1 0zm-28 45l-2 0 -1 -3c0,-2 5,-48 31,-48l2 1c7,0 9,4 10,7 2,13 -25,37 -39,43l-1 0z"/>
  <path fill="#243840" fill-rule="nonzero" d="M2198 4888l-126 0c-5,0 -9,3 -9,7l-17 100c-2,10 7,20 17,20 44,-1 65,-4 121,-4 34,0 104,4 151,4 46,0 51,-47 32,-51 -88,-19 -122,-45 -151,-70 -5,-4 -12,-6 -18,-6z"/>
  <polygon fill="#CCCDCB" fill-rule="nonzero" points="2095,4771 2095,4771 2099,4737 2099,4737 "/>
  <polygon fill="#E0985A" fill-rule="nonzero" points="2206,4789 2095,4771 2099,4737 2210,4751 "/>
  <polygon fill="#CCCDCB" fill-rule="nonzero" points="1454,4453 1453,4453 1473,4429 1473,4429 "/>
  <polygon fill="#E0985A" fill-rule="nonzero" points="1553,4509 1454,4453 1473,4429 1573,4484 "/>
  <path fill="#3571B7" fill-rule="nonzero" d="M2022 2357c88,12 274,37 454,61 176,-636 124,-654 124,-654 -14,-8 -41,-17 -62,-24 -21,-8 -43,-15 -65,-21 -43,-13 -88,-24 -133,-31 -87,-15 -176,-20 -264,-15 -17,1 -35,11 -44,25 -2,3 -4,6 -5,9 -5,10 -7,22 -6,34 39,335 27,445 1,616z"/>
  <path fill="#E0985A" fill-rule="nonzero" d="M2576 2016c6,-26 10,-49 14,-70 -4,21 -8,44 -14,70z"/>
  <path fill="#2664AE" fill-rule="nonzero" d="M2545 2154c-14,-34 -37,-106 -25,-195 8,-56 40,-72 72,-72 2,0 5,1 7,1 -2,17 -5,36 -9,58 -4,21 -8,44 -14,70 -8,40 -18,85 -31,138z"/>
  <path fill="#3571B7" fill-rule="nonzero" d="M2596 1762c78,45 132,151 148,212l-165 152c0,0 -86,-200 -79,-262 7,-62 67,-119 96,-102z"/>
  <path fill="#F6B275" fill-rule="nonzero" d="M2303 1326c-35,105 -52,149 -21,224 46,113 183,137 248,45 59,-82 106,-241 22,-325 -82,-83 -214,-49 -249,56z"/>
  <path fill="#F6B275" fill-rule="nonzero" d="M2476 1420c-8,18 -8,41 -3,60 7,28 28,30 40,12 12,-16 22,-50 8,-73 -14,-23 -36,-21 -45,1z"/>
  <path fill="#243840" fill-rule="nonzero" d="M2341 1195c-75,-42 -210,80 -244,279 -24,143 280,212 472,210 -12,-34 -92,-135 -41,-232 37,-71 79,-55 82,-137 3,-104 -134,-173 -269,-120z"/>
  <path fill="#243840" fill-rule="nonzero" d="M2512 1240c87,-9 175,77 110,162 0,0 -48,-42 -115,-27 -40,9 5,-135 5,-135z"/>
  <path fill="#243840" fill-rule="nonzero" d="M2356 2402c0,0 -176,745 -258,1173 -87,451 -504,921 -504,921l-142 -79c0,0 263,-429 348,-851 172,-855 56,-1027 222,-1209l334 45z"/>
  <polygon fill="#3571B7" fill-rule="nonzero" points="1608,4509 1431,4411 1457,4359 1655,4450 "/>
  <path fill="#202F36" fill-rule="nonzero" d="M2155 3295c-10,-135 -21,-386 23,-563 10,99 20,210 29,322 -18,81 -36,162 -52,241z"/>
  <path fill="#243840" fill-rule="nonzero" d="M2469 2418c0,0 80,885 36,1222 -45,351 -274,1114 -274,1114l-161 -21c0,0 131,-756 154,-1104 26,-378 -87,-1255 -87,-1255l332 44z"/>
  <polygon fill="#3571B7" fill-rule="nonzero" points="2266,4763 2035,4733 2039,4665 2289,4690 "/>
  <path fill="#3571B7" fill-rule="nonzero" d="M2018 2330l-25 37c-1,3 2,7 7,8l476 63c4,1 8,-1 8,-3l9 -40c0,-3 -3,-5 -7,-6l-460 -62c-3,0 -7,1 -8,3z"/>
  <path fill="#1B4881" fill-rule="nonzero" d="M2478 2439c-1,0 -1,0 -2,-1l-5 0 -332 -45 -139 -18c-4,-1 -7,-3 -7,-6 0,-1 0,-1 0,-2l25 -37c1,-2 4,-3 6,-3 1,0 1,0 2,0l460 62c4,1 7,3 7,6 0,0 0,0 0,0l-9 40c0,2 -3,4 -6,4z"/>
  <path fill="#243840" fill-rule="nonzero" d="M2075 2389l-13 -2c-2,0 -4,-1 -4,-3l12 -52c0,-1 2,-2 5,-2l12 2c3,0 4,2 4,3l-11 52c-1,1 -3,2 -5,2z"/>
  <path fill="#243840" fill-rule="nonzero" d="M2385 2431l-12 -1c-2,-1 -4,-2 -4,-4l12 -51c0,-2 2,-3 5,-2l12 1c2,1 4,2 4,4l-12 51c0,2 -2,3 -5,2z"/>
 </g>
</svg>
